<svg width="1253" height="1335" viewBox="0 0 1253 1335" fill="none" xmlns="http://www.w3.org/2000/svg">
<ellipse cx="45.02" cy="46.1855" rx="45.02" ry="46.1855" transform="matrix(-0.81266 -0.582738 -0.582738 0.81266 1203.03 296)" fill="url(#paint0_linear_163_475)"/>
<ellipse cx="981.267" cy="1201.1" rx="30.3546" ry="30.6112" transform="rotate(113.714 981.267 1201.1)" fill="url(#paint1_linear_163_475)"/>
<ellipse cx="22.5328" cy="862.562" rx="20.4855" ry="19.6762" transform="rotate(-84.6517 22.5328 862.562)" fill="url(#paint2_linear_163_475)"/>
<ellipse cx="433.651" cy="707.858" rx="20.4855" ry="19.6762" transform="rotate(3.40534 433.651 707.858)" fill="url(#paint3_linear_163_475)"/>
<path d="M71.7587 150.926L93.5209 175.258L62.8188 182.323L71.7587 150.926Z" fill="url(#paint4_linear_163_475)"/>
<path d="M770.252 326.074L818.628 320.788L804.392 360.754L770.252 326.074Z" fill="url(#paint5_linear_163_475)"/>
<path d="M307.7 1287.92L285.13 1326.19L263.769 1281.29L307.7 1287.92Z" fill="url(#paint6_linear_163_475)"/>
<ellipse cx="34.8696" cy="34.6001" rx="34.8696" ry="34.6001" transform="matrix(0.354754 -0.93496 -0.93496 -0.354754 1227.6 1036.09)" fill="url(#paint7_linear_163_475)"/>
<ellipse cx="329.346" cy="1067.36" rx="46.9928" ry="47.1528" transform="rotate(-171.151 329.346 1067.36)" fill="url(#paint8_linear_163_475)"/>
<ellipse cx="391.615" cy="67.6493" rx="20.4855" ry="19.6762" transform="rotate(-9.51665 391.615 67.6493)" fill="url(#paint9_linear_163_475)"/>
<path d="M1043.24 16.0864L1025.3 43.3625L1010.6 15.5001L1043.24 16.0864Z" fill="url(#paint10_linear_163_475)"/>
<path d="M695.238 1107.09L677.303 1134.36L662.599 1106.5L695.238 1107.09Z" fill="url(#paint11_linear_163_475)"/>
<path d="M1101.97 652.713L1119.49 698.114L1077.21 694.607L1101.97 652.713Z" fill="url(#paint12_linear_163_475)"/>
<path d="M84.4505 456.885L16.7521 443.065L81.8466 387.839L84.4505 456.885Z" fill="url(#paint13_linear_163_475)"/>
<defs>
<linearGradient id="paint0_linear_163_475" x1="45.02" y1="0" x2="45.02" y2="92.371" gradientUnits="userSpaceOnUse">
<stop stop-color="#DA08EC"/>
<stop offset="1" stop-color="#D9D9D9" stop-opacity="0"/>
</linearGradient>
<linearGradient id="paint1_linear_163_475" x1="981.267" y1="1170.49" x2="981.267" y2="1231.71" gradientUnits="userSpaceOnUse">
<stop stop-color="#DA08EC"/>
<stop offset="1" stop-color="#D9D9D9" stop-opacity="0"/>
</linearGradient>
<linearGradient id="paint2_linear_163_475" x1="22.5328" y1="842.886" x2="22.5328" y2="882.238" gradientUnits="userSpaceOnUse">
<stop stop-color="#DA08EC"/>
<stop offset="1" stop-color="#D9D9D9" stop-opacity="0"/>
</linearGradient>
<linearGradient id="paint3_linear_163_475" x1="433.651" y1="688.182" x2="433.651" y2="727.534" gradientUnits="userSpaceOnUse">
<stop stop-color="#DA08EC"/>
<stop offset="1" stop-color="#D9D9D9" stop-opacity="0"/>
</linearGradient>
<linearGradient id="paint4_linear_163_475" x1="71.7587" y1="150.926" x2="80.3069" y2="188.078" gradientUnits="userSpaceOnUse">
<stop stop-color="#B5C1FF"/>
<stop offset="1" stop-color="#D9D9D9" stop-opacity="0"/>
</linearGradient>
<linearGradient id="paint5_linear_163_475" x1="770.252" y1="326.074" x2="825.263" y2="345.67" gradientUnits="userSpaceOnUse">
<stop stop-color="#B5C1FF"/>
<stop offset="1" stop-color="#D9D9D9" stop-opacity="0"/>
</linearGradient>
<linearGradient id="paint6_linear_163_475" x1="307.7" y1="1287.92" x2="263.366" y2="1309.01" gradientUnits="userSpaceOnUse">
<stop stop-color="#B5C1FF"/>
<stop offset="1" stop-color="#D9D9D9" stop-opacity="0"/>
</linearGradient>
<linearGradient id="paint7_linear_163_475" x1="34.8696" y1="0" x2="34.8696" y2="69.2003" gradientUnits="userSpaceOnUse">
<stop stop-color="#DA08EC"/>
<stop offset="1" stop-color="#D9D9D9" stop-opacity="0"/>
</linearGradient>
<linearGradient id="paint8_linear_163_475" x1="329.346" y1="1020.21" x2="329.346" y2="1114.52" gradientUnits="userSpaceOnUse">
<stop stop-color="#DA08EC"/>
<stop offset="1" stop-color="#D9D9D9" stop-opacity="0"/>
</linearGradient>
<linearGradient id="paint9_linear_163_475" x1="391.615" y1="47.9731" x2="391.615" y2="87.3255" gradientUnits="userSpaceOnUse">
<stop stop-color="#DA08EC"/>
<stop offset="1" stop-color="#D9D9D9" stop-opacity="0"/>
</linearGradient>
<linearGradient id="paint10_linear_163_475" x1="1043.24" y1="16.0864" x2="1009.52" y2="33.8796" gradientUnits="userSpaceOnUse">
<stop stop-color="#B5C1FF"/>
<stop offset="1" stop-color="#D9D9D9" stop-opacity="0"/>
</linearGradient>
<linearGradient id="paint11_linear_163_475" x1="695.238" y1="1107.09" x2="661.522" y2="1124.88" gradientUnits="userSpaceOnUse">
<stop stop-color="#B5C1FF"/>
<stop offset="1" stop-color="#D9D9D9" stop-opacity="0"/>
</linearGradient>
<linearGradient id="paint12_linear_163_475" x1="1101.97" y1="652.713" x2="1097.14" y2="710.909" gradientUnits="userSpaceOnUse">
<stop stop-color="#B5C1FF"/>
<stop offset="1" stop-color="#D9D9D9" stop-opacity="0"/>
</linearGradient>
<linearGradient id="paint13_linear_163_475" x1="84.4505" y1="456.885" x2="37.5823" y2="401.642" gradientUnits="userSpaceOnUse">
<stop stop-color="#B5C1FF"/>
<stop offset="1" stop-color="#D9D9D9" stop-opacity="0"/>
</linearGradient>
</defs>
</svg>
