<svg width="983" height="1593" viewBox="0 0 983 1593" fill="none" xmlns="http://www.w3.org/2000/svg">
<path d="M278.317 4.89887L320.182 121.043L217.889 112.558L278.317 4.89887Z" fill="url(#paint0_linear_168_515)"/>
<path d="M580.266 1144.52L525.385 1027.38L643.625 1031.74L580.266 1144.52Z" fill="url(#paint1_linear_168_515)"/>
<path d="M652.56 1498.8L734.778 1516.14L692.263 1572.86L652.56 1498.8Z" fill="url(#paint2_linear_168_515)"/>
<path d="M509.411 512.368L568.699 535.08L515.621 575.553L509.411 512.368Z" fill="url(#paint3_linear_168_515)"/>
<path d="M234.744 852.488L278.384 873.237L243.203 900.064L234.744 852.488Z" fill="url(#paint4_linear_168_515)"/>
<path d="M947.482 1228.4L957.585 1260.25L933.508 1258.75L947.482 1228.4Z" fill="url(#paint5_linear_168_515)"/>
<path d="M115.51 1388.65L71.7684 1466.92L25.8521 1387.85L115.51 1388.65Z" fill="url(#paint6_linear_168_515)"/>
<path d="M18.4891 339.062L36.0175 365.145L3.99346 366.945L18.4891 339.062Z" fill="url(#paint7_linear_168_515)"/>
<path d="M952.906 713.028L886.845 759.941L880.902 675.876L952.906 713.028Z" fill="url(#paint8_linear_168_515)"/>
<path d="M958.809 132.287L938.074 194.203L896.308 151.188L958.809 132.287Z" fill="url(#paint9_linear_168_515)"/>
<defs>
<linearGradient id="paint0_linear_168_515" x1="278.317" y1="4.89887" x2="265.941" y2="154.101" gradientUnits="userSpaceOnUse">
<stop stop-color="#DA08EC"/>
<stop offset="1" stop-color="#D9D9D9" stop-opacity="0"/>
</linearGradient>
<linearGradient id="paint1_linear_168_515" x1="580.266" y1="1144.52" x2="585.918" y2="991.235" gradientUnits="userSpaceOnUse">
<stop stop-color="#DA08EC"/>
<stop offset="1" stop-color="#D9D9D9" stop-opacity="0"/>
</linearGradient>
<linearGradient id="paint2_linear_168_515" x1="652.56" y1="1498.8" x2="733.841" y2="1559.73" gradientUnits="userSpaceOnUse">
<stop stop-color="#B5C1FF"/>
<stop offset="1" stop-color="#D9D9D9" stop-opacity="0"/>
</linearGradient>
<linearGradient id="paint3_linear_168_515" x1="509.411" y1="512.368" x2="553.077" y2="569.633" gradientUnits="userSpaceOnUse">
<stop stop-color="#B5C1FF"/>
<stop offset="1" stop-color="#D9D9D9" stop-opacity="0"/>
</linearGradient>
<linearGradient id="paint4_linear_168_515" x1="234.744" y1="852.488" x2="269.477" y2="898.038" gradientUnits="userSpaceOnUse">
<stop stop-color="#DA08EC"/>
<stop offset="1" stop-color="#D9D9D9" stop-opacity="0"/>
</linearGradient>
<linearGradient id="paint5_linear_168_515" x1="947.482" y1="1228.4" x2="944.901" y2="1269.86" gradientUnits="userSpaceOnUse">
<stop stop-color="#B5C1FF"/>
<stop offset="1" stop-color="#D9D9D9" stop-opacity="0"/>
</linearGradient>
<linearGradient id="paint6_linear_168_515" x1="115.51" y1="1388.65" x2="26.5771" y2="1440.29" gradientUnits="userSpaceOnUse">
<stop stop-color="#DA08EC"/>
<stop offset="1" stop-color="#D9D9D9" stop-opacity="0"/>
</linearGradient>
<linearGradient id="paint7_linear_168_515" x1="18.4891" y1="339.062" x2="20.5109" y2="375.039" gradientUnits="userSpaceOnUse">
<stop stop-color="#B5C1FF"/>
<stop offset="1" stop-color="#D9D9D9" stop-opacity="0"/>
</linearGradient>
<linearGradient id="paint8_linear_168_515" x1="952.906" y1="713.028" x2="860.863" y2="719.535" gradientUnits="userSpaceOnUse">
<stop stop-color="#DA08EC"/>
<stop offset="1" stop-color="#D9D9D9" stop-opacity="0"/>
</linearGradient>
<linearGradient id="paint9_linear_168_515" x1="958.809" y1="132.287" x2="903.318" y2="186.165" gradientUnits="userSpaceOnUse">
<stop stop-color="#B5C1FF"/>
<stop offset="1" stop-color="#D9D9D9" stop-opacity="0"/>
</linearGradient>
</defs>
</svg>
