<svg xmlns="http://www.w3.org/2000/svg" viewBox="0 0 476 222.03"><defs><style>.cls-1,.cls-3{fill:#acadbf;}.cls-2{stroke:#acadbf;}.cls-2,.cls-3{stroke-miterlimit:10;stroke-width:3.06px;}.cls-3{stroke:#000;}.cls-4{fill:#cfd1e0;}.cls-5{fill:#dcddde;}.cls-6{fill:#24243b;}.cls-7{fill:#ff52ce;}.cls-8{fill:#5fbdff;}.cls-9{fill:#00a99d;}.cls-10{fill:#4d4d6b;}.cls-11{fill:#333341;}.cls-12{fill:#fff600;}.cls-13{fill:#999;}.cls-14{fill:#fcee21;}.cls-15{fill:#ed1c24;}.cls-16{fill:blue;}.cls-17{fill:#29abe2;}</style></defs><g id="Layer_2" data-name="Layer 2"><g id="Layer_1-2" data-name="Layer 1"><g id="Layer_2-2" data-name="Layer 2"><g id="Layer_1-2-2" data-name="Layer 1-2"><polygon class="cls-1" points="430.32 222.03 35.33 222.03 0 216.29 475.39 215.99 430.32 222.03"/><path class="cls-2" d="M55.51,1.53h370.1a8,8,0,0,1,8.09,8V202.9a8,8,0,0,1-8.09,7.95H55.51a8,8,0,0,1-8.09-7.95V9.48A8,8,0,0,1,55.51,1.53Z"/><rect class="cls-3" x="239.95" y="210.25" height="0.6"/><polygon class="cls-4" points="0.1 205.41 476 204.87 476 215.99 0 216.29 0.1 205.41"/><rect class="cls-5" x="53.87" y="7.87" width="372.98" height="183.25"/><rect class="cls-6" x="63.8" y="17.03" width="353.93" height="164.22"/><rect class="cls-7" x="167.03" y="34.15" width="57.35" height="3.12"/><rect class="cls-8" x="167.03" y="56.2" width="42.81" height="3.22"/><rect class="cls-9" x="171.13" y="62.64" width="67.9" height="3.02"/><rect class="cls-10" x="63.29" y="17.03" width="19.46" height="165.57"/><rect class="cls-11" x="80.8" y="17.03" width="72.71" height="165.57"/><rect class="cls-10" x="153.41" y="17.13" width="264.22" height="12.08"/><rect class="cls-6" x="153.51" y="140.98" width="264.22" height="41.62"/><rect class="cls-11" x="153.41" y="139.97" width="264.22" height="2.01"/><rect class="cls-10" x="264.01" y="144" width="153.61" height="8.05"/><ellipse class="cls-10" cx="188.74" cy="147.52" rx="3.58" ry="3.52"/><ellipse class="cls-10" cx="205.13" cy="158.6" rx="3.58" ry="3.52"/><rect class="cls-6" x="246.6" y="17.13" width="44.04" height="12.08"/><rect class="cls-5" x="259.92" y="21.16" width="21.3" height="3.02"/><rect class="cls-12" x="255.82" y="21.16" width="4.1" height="3.02"/><rect class="cls-5" x="109.99" y="31.53" width="33.18" height="3.02"/><rect class="cls-12" x="103.64" y="31.53" width="6.35" height="3.02"/><rect class="cls-5" x="110.3" y="37.67" width="32.87" height="3.02"/><rect class="cls-12" x="103.95" y="37.67" width="6.35" height="3.02"/><rect class="cls-5" x="93.09" y="47.54" width="17.31" height="4.83"/><rect class="cls-13" x="100.87" y="54.99" width="33.08" height="2.42"/><rect class="cls-13" x="103.23" y="59.12" width="33.08" height="2.42"/><rect class="cls-13" x="93.4" y="68.48" width="17" height="4.23"/><rect class="cls-8" x="99.44" y="78.55" width="26.32" height="2.42"/><rect class="cls-7" x="99.54" y="84.49" width="39.63" height="2.42"/><rect class="cls-14" x="99.44" y="90.74" width="31.54" height="2.42"/><rect class="cls-15" x="99.85" y="97.18" width="33.08" height="2.42"/><rect class="cls-8" x="99.85" y="103.52" width="26.32" height="2.42"/><rect class="cls-8" x="99.85" y="109.36" width="39.63" height="2.42"/><rect class="cls-16" x="99.75" y="115.7" width="31.54" height="2.42"/><rect class="cls-5" x="100.26" y="128.29" width="33.18" height="3.02"/><rect class="cls-12" x="93.81" y="128.29" width="6.35" height="3.02"/><rect class="cls-5" x="100.57" y="134.43" width="32.87" height="3.02"/><rect class="cls-12" x="94.22" y="134.43" width="6.35" height="3.02"/><rect class="cls-17" x="160.17" y="21.97" width="26.32" height="2.42"/><rect class="cls-14" x="203.59" y="22.17" width="27.45" height="2.32"/><ellipse class="cls-4" cx="72.51" cy="33.24" rx="5.12" ry="5.03"/><ellipse class="cls-4" cx="72.51" cy="52.37" rx="5.12" ry="5.03"/><ellipse class="cls-4" cx="72.51" cy="70.5" rx="5.12" ry="5.03"/><ellipse class="cls-4" cx="72.51" cy="89.63" rx="5.12" ry="5.03"/><rect class="cls-13" x="162.42" y="145.81" width="17" height="4.23"/><rect class="cls-13" x="162.52" y="157.79" width="33.08" height="2.42"/><rect class="cls-7" x="166.93" y="40.29" width="65.44" height="3.12"/><rect class="cls-9" x="170.61" y="72.81" width="67.9" height="3.02"/><rect class="cls-8" x="174.92" y="67.68" width="16.39" height="2.82"/><rect class="cls-8" x="166.72" y="78.75" width="42.81" height="3.22"/><rect class="cls-8" x="167.03" y="91.74" width="42.81" height="3.22"/><rect class="cls-7" x="171.13" y="98.69" width="99.03" height="2.62"/><rect class="cls-7" x="179.93" y="109.36" width="67.9" height="3.02"/><rect class="cls-8" x="175.02" y="103.72" width="102.31" height="3.02"/><rect class="cls-8" x="166.83" y="114.3" width="42.81" height="3.22"/></g></g></g></g></svg>