<svg xmlns="http://www.w3.org/2000/svg" viewBox="0 0 476 222.03"><defs><style>.cls-1,.cls-3{fill:#acadbf;}.cls-2{stroke:#acadbf;stroke-width:3.07px;}.cls-2,.cls-3{stroke-miterlimit:10;}.cls-3{stroke:#000;stroke-width:3.02px;}.cls-4{fill:#cfd1e0;}.cls-5{fill:#dcddde;}.cls-6{fill:#5552ce;}.cls-7{fill:#ff52ce;}.cls-8{fill:#5fbdff;}.cls-9{fill:#5f9dff;}.cls-10{fill:#b3b3b3;}.cls-11{fill:blue;}.cls-12{fill:#5552e9;}</style></defs><g id="Layer_2" data-name="Layer 2"><g id="Layer_2-2" data-name="Layer 2"><g id="Layer_1-2" data-name="Layer 1-2"><polygon class="cls-1" points="431.61 221.98 35.33 222.03 0.26 216.27 476 215.99 431.61 221.98"/><path class="cls-2" d="M53.94,1.53H426.65a8,8,0,0,1,8.13,8V202.87a8,8,0,0,1-8.13,7.94H53.94a8,8,0,0,1-8.13-7.94V9.48A8,8,0,0,1,53.94,1.53Z"/><rect class="cls-3" x="245.82" y="210.21" height="0.61"/><polygon class="cls-4" points="0 205.05 476 205.05 476 215.99 0 216.3 0 205.05"/><rect class="cls-5" x="52.28" y="7.9" width="375.88" height="183.19"/><rect class="cls-6" x="59.43" y="17" width="360.01" height="165.6"/><rect class="cls-7" x="59.43" y="17" width="360.01" height="20.62"/><rect class="cls-8" x="346.02" y="37.63" width="73.42" height="144.98"/><path class="cls-8" d="M128.71,57h72.95A5.37,5.37,0,0,1,207,62.43v44.42a5.37,5.37,0,0,1-5.35,5.39H128.71a5.37,5.37,0,0,1-5.35-5.39V62.43A5.37,5.37,0,0,1,128.71,57Z"/><rect class="cls-5" x="213.63" y="70.38" width="55.96" height="5.46"/><path class="cls-9" d="M122.76,170.17V135a3.32,3.32,0,0,1,3.31-3.34h35.51a3.33,3.33,0,0,1,3.31,3.34v35.18a3.33,3.33,0,0,1-3.31,3.34H126.07A3.33,3.33,0,0,1,122.76,170.17Z"/><path class="cls-9" d="M183.54,170.17V135a3.32,3.32,0,0,1,3.31-3.34h35.5a3.32,3.32,0,0,1,3.31,3.34v35.18a3.33,3.33,0,0,1-3.31,3.34h-35.5A3.33,3.33,0,0,1,183.54,170.17Z"/><path class="cls-9" d="M244.92,170.17V135a3.32,3.32,0,0,1,3.31-3.34h35.5A3.32,3.32,0,0,1,287,135v35.18a3.33,3.33,0,0,1-3.31,3.34h-35.5A3.33,3.33,0,0,1,244.92,170.17Z"/><rect class="cls-5" x="213.63" y="84.34" width="70.41" height="3.03"/><rect class="cls-5" x="213.63" y="89.8" width="66.19" height="3.03"/><path class="cls-5" d="M122.76,157.73h42.13v14a1.76,1.76,0,0,1-1.76,1.77H124.51a1.76,1.76,0,0,1-1.75-1.77h0v-14Z"/><path class="cls-5" d="M183.54,157.73h42.12v14a1.76,1.76,0,0,1-1.75,1.77H185.29a1.76,1.76,0,0,1-1.75-1.77h0v-14Z"/><path class="cls-5" d="M244.92,157.73H287v14a1.76,1.76,0,0,1-1.75,1.77H246.67a1.76,1.76,0,0,1-1.75-1.77h0v-14Z"/><rect class="cls-10" x="125.26" y="160.77" width="22.18" height="3.22"/><rect class="cls-10" x="186.51" y="161.04" width="22.18" height="3.22"/><rect class="cls-10" x="247.89" y="161.04" width="22.18" height="3.22"/><path class="cls-5" d="M72.77,21.62h0a6.3,6.3,0,0,1,8.48,2.85h0A6.39,6.39,0,0,1,78.43,33h0A6.29,6.29,0,0,1,70,30.16h0A6.39,6.39,0,0,1,72.77,21.62Z"/><path class="cls-5" d="M375.5,27.32h0A6.34,6.34,0,0,1,381.82,21h20.61a6.34,6.34,0,0,1,6.32,6.37h0a6.34,6.34,0,0,1-6.32,6.36H381.82A6.34,6.34,0,0,1,375.5,27.32Z"/><path class="cls-11" d="M400.06,22.9h0a4.85,4.85,0,0,1,6.54,2.19h0a4.93,4.93,0,0,1-2.18,6.59h0a4.85,4.85,0,0,1-6.53-2.2h0A4.92,4.92,0,0,1,400.06,22.9Z"/><path class="cls-11" d="M127.58,165.62h9a2.42,2.42,0,0,1,2.41,2.43h0a2.41,2.41,0,0,1-2.41,2.42h-9a2.41,2.41,0,0,1-2.41-2.42h0A2.42,2.42,0,0,1,127.58,165.62Z"/><path class="cls-11" d="M189,165.62h9a2.42,2.42,0,0,1,2.41,2.43h0a2.41,2.41,0,0,1-2.41,2.42h-9a2.41,2.41,0,0,1-2.41-2.42h0A2.42,2.42,0,0,1,189,165.62Z"/><path class="cls-11" d="M250.34,165.62h9a2.42,2.42,0,0,1,2.41,2.43h0a2.41,2.41,0,0,1-2.41,2.42h-9a2.41,2.41,0,0,1-2.41-2.42h0A2.42,2.42,0,0,1,250.34,165.62Z"/><rect class="cls-5" x="123.36" y="123.16" width="113.13" height="2.43"/><path class="cls-12" d="M355.24,43.09H408.4a3.82,3.82,0,0,1,3.81,3.84V57.45a3.82,3.82,0,0,1-3.81,3.84H355.24a3.83,3.83,0,0,1-3.81-3.84V46.93A3.83,3.83,0,0,1,355.24,43.09Z"/><path class="cls-12" d="M355.24,66.74H408.4a3.82,3.82,0,0,1,3.81,3.84V81.1a3.82,3.82,0,0,1-3.81,3.84H355.24a3.83,3.83,0,0,1-3.81-3.84V70.58A3.83,3.83,0,0,1,355.24,66.74Z"/><path class="cls-12" d="M355.84,90.4H409a3.82,3.82,0,0,1,3.81,3.84v10.52A3.82,3.82,0,0,1,409,108.6H355.84a3.82,3.82,0,0,1-3.8-3.84V94.24A3.82,3.82,0,0,1,355.84,90.4Z"/><path class="cls-11" d="M397.77,47.33h9a2.41,2.41,0,0,1,2.4,2.43h0a2.41,2.41,0,0,1-2.4,2.43h-9a2.42,2.42,0,0,1-2.41-2.43h0A2.42,2.42,0,0,1,397.77,47.33Z"/><path class="cls-11" d="M377.31,73.42h9a2.4,2.4,0,0,1,2.4,2.42h0a2.41,2.41,0,0,1-2.4,2.43h-9a2.42,2.42,0,0,1-2.41-2.43h0A2.41,2.41,0,0,1,377.31,73.42Z"/><path class="cls-11" d="M359.86,99.5h9a2.42,2.42,0,0,1,2.41,2.43h0a2.41,2.41,0,0,1-2.41,2.42h-9a2.41,2.41,0,0,1-2.41-2.42h0A2.42,2.42,0,0,1,359.86,99.5Z"/><path class="cls-7" d="M406.48,172.54h0a2.83,2.83,0,0,1,3.8,1.28l.06.13a2.87,2.87,0,0,1-1.26,3.83h0a2.83,2.83,0,0,1-3.8-1.28l-.06-.13A2.86,2.86,0,0,1,406.48,172.54Z"/><path class="cls-7" d="M399.17,172.47h0a2.81,2.81,0,0,1,3.79,1.28l.07.13a2.86,2.86,0,0,1-1.27,3.82h0a2.82,2.82,0,0,1-3.79-1.27l-.07-.13A2.87,2.87,0,0,1,399.17,172.47Z"/><path class="cls-7" d="M391.86,172.41h0a2.82,2.82,0,0,1,3.8,1.27l.06.13a2.87,2.87,0,0,1-1.26,3.83h0a2.83,2.83,0,0,1-3.8-1.28l-.06-.13A2.85,2.85,0,0,1,391.86,172.41Z"/></g></g></g></svg>