<svg xmlns="http://www.w3.org/2000/svg" viewBox="0 0 790 365.64"><defs><style>.cls-1,.cls-3{fill:#acadbf;}.cls-2{stroke:#acadbf;stroke-width:5.07px;}.cls-2,.cls-3{stroke-miterlimit:10;}.cls-3{stroke:#000;stroke-width:4.99px;}.cls-4{fill:#cfd1e0;}.cls-5{fill:#dcddde;}.cls-6{fill:#5552ce;}.cls-7{fill:#ff52ce;}.cls-8{fill:#5fbdff;}.cls-9{fill:#5f9dff;}.cls-10{fill:#b3b3b3;}.cls-11{fill:blue;}.cls-12{fill:#5552e9;}</style></defs><g id="Layer_2" data-name="Layer 2"><g id="Layer_1-2" data-name="Layer 1"><g id="Layer_1-2-2" data-name="Layer 1-2"><polygon class="cls-1" points="716.33 365.56 58.64 365.64 0.42 356.15 789.32 356.15 716.33 365.56"/><path class="cls-2" d="M89.53,2.54H708.09a13.29,13.29,0,0,1,13.5,13.07V334.09a13.29,13.29,0,0,1-13.5,13.07H89.53A13.29,13.29,0,0,1,76,334.09V15.61A13.29,13.29,0,0,1,89.53,2.54Z"/><rect class="cls-3" x="407.98" y="346.16" height="1"/><rect class="cls-4" y="337.67" width="790" height="18.52"/><rect class="cls-5" x="86.76" y="13.03" width="623.84" height="301.67"/><rect class="cls-6" x="122.84" y="28.01" width="573.27" height="272.7"/><rect class="cls-7" x="122.84" y="28.01" width="573.27" height="33.96"/><rect class="cls-8" x="574.27" y="61.97" width="121.85" height="238.74"/><rect class="cls-8" x="204.74" y="93.94" width="138.82" height="90.9" rx="8.88"/><rect class="cls-5" x="354.55" y="115.91" width="92.88" height="8.99"/><rect class="cls-9" x="203.74" y="216.81" width="69.91" height="68.93" rx="5.49"/><rect class="cls-9" x="304.61" y="216.81" width="69.91" height="68.93" rx="5.49"/><rect class="cls-9" x="406.49" y="216.81" width="69.91" height="68.93" rx="5.49"/><rect class="cls-5" x="354.55" y="138.89" width="116.85" height="4.99"/><rect class="cls-5" x="354.55" y="147.88" width="109.86" height="4.99"/><path class="cls-5" d="M203.74,259.76h69.91v23.06a2.9,2.9,0,0,1-2.9,2.91h-64.1a2.91,2.91,0,0,1-2.91-2.91h0V259.76Z"/><path class="cls-5" d="M304.61,259.76h69.92v23.06a2.91,2.91,0,0,1-2.91,2.91h-64.1a2.91,2.91,0,0,1-2.91-2.91h0V259.76Z"/><path class="cls-5" d="M406.49,259.76H476.4v23.06a2.91,2.91,0,0,1-2.91,2.91h-64.1a2.9,2.9,0,0,1-2.9-2.91h0V259.76Z"/><rect class="cls-10" x="207.89" y="264.75" width="36.8" height="5.3"/><rect class="cls-10" x="309.55" y="265.2" width="36.8" height="5.3"/><rect class="cls-10" x="411.42" y="265.2" width="36.8" height="5.3"/><path class="cls-5" d="M147.62,36.1h0a10.49,10.49,0,0,1,14.07,4.69h0A10.49,10.49,0,0,1,157,54.86h0a10.49,10.49,0,0,1-14.07-4.69h0A10.49,10.49,0,0,1,147.62,36.1Z"/><path class="cls-5" d="M623.21,45h0A10.49,10.49,0,0,1,633.7,34.5h34.19A10.49,10.49,0,0,1,678.38,45h0a10.49,10.49,0,0,1-10.49,10.49H633.7A10.49,10.49,0,0,1,623.21,45Z"/><path class="cls-11" d="M664,37.71h0a8.1,8.1,0,0,1,10.85,3.62h0a8.09,8.09,0,0,1-3.61,10.85h0a8.08,8.08,0,0,1-10.85-3.62h0A8.09,8.09,0,0,1,664,37.71Z"/><path class="cls-11" d="M211.73,272.74h15a4,4,0,0,1,4,4h0a4,4,0,0,1-4,4h-15a4,4,0,0,1-4-4h0A4,4,0,0,1,211.73,272.74Z"/><path class="cls-11" d="M313.6,272.74h15a4,4,0,0,1,4,4h0a4,4,0,0,1-4,4h-15a4,4,0,0,1-4-4h0A4,4,0,0,1,313.6,272.74Z"/><path class="cls-11" d="M415.47,272.74h15a4,4,0,0,1,4,4h0a4,4,0,0,1-4,4h-15a4,4,0,0,1-4-4h0A4,4,0,0,1,415.47,272.74Z"/><rect class="cls-5" x="204.74" y="202.82" width="187.76" height="4"/><rect class="cls-12" x="583.26" y="70.96" width="100.87" height="29.97" rx="6.32"/><rect class="cls-12" x="583.26" y="109.92" width="100.87" height="29.97" rx="6.32"/><rect class="cls-12" x="584.26" y="148.88" width="100.87" height="29.97" rx="6.32"/><path class="cls-11" d="M660.16,78h15a4,4,0,0,1,4,4h0a4,4,0,0,1-4,4h-15a4,4,0,0,1-4-4h0A4,4,0,0,1,660.16,78Z"/><path class="cls-11" d="M626.21,120.91h15a4,4,0,0,1,4,4h0a4,4,0,0,1-4,4h-15a4,4,0,0,1-4-4h0A4,4,0,0,1,626.21,120.91Z"/><path class="cls-11" d="M597.24,163.86h15a4,4,0,0,1,4,4h0a4,4,0,0,1-4,4h-15a4,4,0,0,1-4-4h0A4,4,0,0,1,597.24,163.86Z"/><path class="cls-7" d="M674.62,284.15h0a4.7,4.7,0,0,1,6.3,2.1l.11.21a4.7,4.7,0,0,1-2.1,6.3h0a4.7,4.7,0,0,1-6.3-2.1l-.11-.21A4.7,4.7,0,0,1,674.62,284.15Z"/><path class="cls-7" d="M662.49,284h0a4.7,4.7,0,0,1,6.3,2.1l.1.22a4.7,4.7,0,0,1-2.1,6.3h0a4.68,4.68,0,0,1-6.29-2.1l-.11-.22A4.7,4.7,0,0,1,662.49,284Z"/><path class="cls-7" d="M650.36,283.92h0a4.68,4.68,0,0,1,6.29,2.1l.11.21a4.7,4.7,0,0,1-2.1,6.3h0a4.68,4.68,0,0,1-6.29-2.1l-.11-.21A4.7,4.7,0,0,1,650.36,283.92Z"/></g></g></g></svg>